PathFileType	4	(X/Y/Z)	T1_P1_Vision_Movement_3_0-659.trc
DataRate	CameraRate	NumFrames	NumMarkers	Units	OrigDataRate	OrigDataStartFrame	OrigNumFrames
60	60	7	27	m	60	164	659
Frame#	Time	RHip			RKnee			RAnkle			RBigToe			RSmallToe			RHeel			LHip			LKnee			LAnkle			LBigToe			LSmallToe			LHeel			Neck			Head			Nose			RShoulder			RElbow			RWrist			RThumb			RIndex			RPinky			LShoulder			LElbow			LWrist			LThumb			LIndex			LPinky		
		X1	Y1	Z1	X2	Y2	Z2	X3	Y3	Z3	X4	Y4	Z4	X5	Y5	Z5	X6	Y6	Z6	X7	Y7	Z7	X8	Y8	Z8	X9	Y9	Z9	X10	Y10	Z10	X11	Y11	Z11	X12	Y12	Z12	X13	Y13	Z13	X14	Y14	Z14	X15	Y15	Z15	X16	Y16	Z16	X17	Y17	Z17	X18	Y18	Z18	X19	Y19	Z19	X20	Y20	Z20	X21	Y21	Z21	X22	Y22	Z22	X23	Y23	Z23	X24	Y24	Z24	X25	Y25	Z25	X26	Y26	Z26	X27	Y27	Z27
165	2.75	-89.68459014149585	3858.968062063152	-626.2355257568706	251.15991070142834	3994.1033604729323	-630.037032261125	610.8453017232135	4268.296086866267	-686.0976691621831	691.0002732902965	4176.555022512481	-645.547400469207	680.8021407976553	4142.388620719502	-686.0928855367556	645.4474969510669	4317.386634158129	-696.3667503375851	-122.31388014120998	4050.69131537252	-508.0272600808528	215.67028731939106	4163.240050927316	-496.1161617796821	577.1067276292572	4338.538855232619	-503.3824684845758	644.4681664592597	4219.9048442197445	-402.8094549924223	619.4231717289451	4255.630603894128	-376.93041917619485	633.3560115398658	4386.798157340694	-534.8092874303544	-695.2605940226567	3792.3425149462764	-583.9582544467783	-930.353358569708	3599.941383595076	-471.14574691626274	-789.6545256886762	3641.6437226838457	-449.8224158318205	-588.6627749448919	3756.885786372974	-712.2951787057632	-325.9827599944774	3616.2937785911117	-684.5914642546795	-532.700608661728	3548.4858793039743	-537.5407650253234	-600.0655027513684	3497.2600753778643	-455.62161966624495	-606.4672317933463	3475.989876601738	-426.57089531522524	-557.3959036684458	3467.8040575015416	-431.883501692144	-631.2995333724713	3908.739970593527	-489.15451741597934	-404.9787920516892	4141.713188338746	-468.24820066294916	-156.74773125243541	4096.769658403638	-366.9948474187497	-21.58170967534936	4117.330225888429	-374.18247209013975	18.358784233191006	4168.770825489735	-375.67717237439484	-15.73501930611806	4155.9546605393725	-336.06571589473725
166	2.7666666666666666	-95.66932342761079	3885.2967576450787	-634.1591887932609	251.2856372398544	3994.2500399205132	-630.1443627057656	610.6767628732708	4267.868430975265	-685.9394518631842	683.8646711845867	4171.5635343825625	-642.9522829586775	674.4904662695974	4138.078253578164	-683.7669144183534	638.879930642641	4313.361987610426	-696.5519694012866	-116.46115259350849	4054.4255421771386	-509.5958714495599	215.60207997728784	4162.983661418209	-496.1056349913093	570.4502841593629	4335.115166518309	-504.2324458919389	644.2515293116056	4219.602547060231	-402.65432217744586	623.804190368415	4288.247529547151	-382.9217274843999	626.1721115351239	4382.9834479602205	-535.5502357638777	-695.2936709044175	3792.2751987774277	-583.8469490811052	-930.248991199859	3599.6733373904895	-470.99264727634	-789.6147394812956	3641.4149569983156	-449.7058027546915	-588.2184624071965	3755.8230356173212	-717.4439133930714	-328.02166974879185	3641.119659481578	-692.0094751491874	-523.362965108573	3550.5792061316556	-537.1459375080431	-600.2118499917733	3499.825305023492	-461.1905979064812	-603.4020003293431	3477.3640347893383	-431.1637669321292	-557.617848451859	3467.478492979619	-431.9700347320352	-631.1158536382833	3908.458748648979	-488.97437508625507	-404.91544750127844	4141.52996153642	-468.13038351175004	-150.93857302093735	4100.877798663318	-368.6136725644187	-21.102703831463135	4118.153562142204	-374.9056935328033	18.588974299127067	4169.260281127392	-376.0634411992543	-15.378130320013561	4155.804049829421	-335.88396319796664
167	2.783333333333333	-90.12548159531482	3907.3427165109365	-642.6824549054049	251.22277663253922	3994.4307437756715	-630.1685523521879	605.2339325096095	4268.247360821779	-686.4265770251008	689.0273360311766	4204.878981247679	-650.8942907388573	674.7264118621752	4138.764678248199	-683.9219499949598	645.3235137757852	4316.5747452816895	-695.794056601407	-117.33803426290521	4052.617538712298	-501.592920214756	215.65887087858982	4163.107317801203	-496.085601719806	572.4666411585023	4338.351532766872	-509.45077211669883	644.3317774749956	4220.017734014133	-402.8833762128068	623.8443929617212	4288.414760967895	-383.0835366269803	626.003143138761	4382.658877285414	-535.499056969987	-695.2944200816765	3792.4518996897527	-583.7170815952403	-930.30708012611	3599.206053536225	-465.2093391783846	-789.6374862835726	3641.5188277626416	-449.6750194045949	-588.6518196795934	3757.038981897282	-712.2309319043474	-328.1110860322824	3640.619605560854	-691.7109937841584	-527.9030232714591	3549.1525724624357	-537.1237919729062	-603.5289454963444	3496.896644417736	-456.7878792222455	-609.8915519637	3476.0779263291047	-431.5972278601161	-554.755140783181	3468.6714477514424	-432.46763603146496	-635.556343196483	3935.9309759869802	-489.3405245459095	-399.38330269761013	4142.604410759658	-467.9970099031951	-145.28272119508787	4103.280430853323	-368.05584884663705	-21.114724981064274	4118.540841004299	-374.79849636309154	18.62713236270654	4169.546305861136	-376.1083491202231	-14.566017728198341	4158.596638562435	-342.47176204224735
168	2.8	-90.0782439335448	3887.983179594507	-633.9819565296076	251.04155561209342	3994.4542929349645	-630.1539762461144	599.0153835618964	4263.125947480097	-683.9395951494846	683.8145395212752	4171.474039308323	-642.7919663463072	674.3767058533973	4137.5185537239495	-683.3885607886831	644.8991455572641	4317.790020681469	-696.7162500279139	-117.23438979011937	4052.832883325975	-501.7485250862464	214.92648208458183	4163.288965990961	-490.71765837984066	572.7785197370608	4339.307576540171	-509.7336411362661	644.372158020463	4219.817815818944	-402.7503475495506	623.9055320864669	4288.356913016099	-382.98656321350313	626.6830387102507	4383.73605430242	-535.8494731150737	-690.2980844000922	3793.9132600328057	-583.459287085361	-935.9337461611334	3623.384703662753	-470.7608746370388	-785.5128042337674	3642.826533506997	-449.4269817926863	-588.7609673350591	3757.2555927635503	-712.2861457506674	-326.00429439349153	3615.9060736913034	-684.4174592065712	-530.9382180533336	3571.974787585761	-542.8293395112837	-595.0511646651914	3483.840261122629	-443.49968654745345	-599.6783933834952	3478.2942268911424	-430.85314805602314	-554.1161028964585	3468.133316499824	-431.8865581629097	-635.6950247606625	3936.072730867524	-489.45768970944266	-404.8458805782042	4141.43476323895	-468.0679836771775	-145.31737031367788	4103.168506298724	-368.0706140088445	-21.879216822633598	4120.616853953697	-374.5189658003513	18.435553838807664	4169.459911360179	-375.84645137849793	-15.22671122510658	4156.000359374503	-335.8961972756289
169	2.816666666666667	-95.70079759864906	3885.3906242719195	-634.1260859177069	251.1880486706092	3994.4246597054444	-630.0586710914306	605.6111577647455	4268.933456352264	-687.0080542339275	683.6457634075891	4170.7001149727275	-642.591231707757	674.4723946593265	4137.778430742995	-683.6820439821794	645.6793140368244	4317.864904430484	-696.9248157353844	-116.37344130088505	4054.3251530316647	-509.5601934357248	214.9566325558737	4162.617657759132	-490.44377110983066	576.8937862178735	4338.616840852896	-503.563267057134	644.5844819392804	4219.337822378236	-402.8062660240079	619.404939757197	4255.403090540838	-376.74274335778085	626.4228755726435	4383.406801498252	-535.6154690165661	-690.3989874763773	3793.8220031499786	-583.3593887479058	-935.8720207737013	3623.4820155084863	-470.7863320557506	-790.1265350435904	3639.556997681894	-448.33355482990345	-583.9809825426329	3758.4585395697914	-711.9547044169456	-333.1617354179698	3639.0640831107958	-691.9261905785139	-535.8714629656226	3570.150190635982	-543.0478111384964	-600.7802658071624	3482.702098332114	-449.1661789013017	-615.1601578972407	3498.5150327541646	-436.8526919405484	-554.2921641635246	3468.1571244396964	-432.0021205875061	-635.3154294817186	3935.9591974095106	-494.62235772991596	-404.90536113440146	4141.357057190824	-467.9681107113295	-151.09364643015374	4101.202561975194	-368.7716765575235	-27.138053420646266	4119.35547227988	-376.20363813924183	12.821931815186542	4166.1676472784575	-375.05254545592686	-14.79104158414194	4158.899104902799	-342.7029155548789
170	2.8333333333333335	-90.22935666806171	3889.059005262971	-635.7832915317156	251.47321310190506	3994.371565009231	-630.1579981738271	610.8771775787442	4267.9844054746545	-686.3210207457502	683.707879918364	4171.320395092417	-642.8284290365056	674.4312706433797	4137.701548290465	-683.684755472841	645.2215726288371	4317.761530467371	-697.0266978889076	-116.23008545130185	4054.135990846028	-509.51304473516035	220.4783335990525	4162.891309109149	-495.719306030125	571.2639852695553	4334.653923505741	-509.75586296032645	639.6059575516298	4196.791683388579	-387.93365975477707	623.8453627618284	4288.382113464992	-382.98896786822024	626.1343745655394	4383.006641523861	-535.782756600326	-695.1368634778157	3792.608921113163	-583.3171518687304	-931.7163174989315	3626.282463959999	-471.3200122019855	-786.0298734931687	3644.2045396576286	-443.99988969992796	-588.8537542029095	3757.4930703093296	-711.8443720584199	-331.0518706719761	3613.737522942444	-684.1903739457595	-536.4406958513702	3570.110395555211	-542.8441269973697	-614.4117006066313	3502.041223769276	-453.27384161003494	-618.8493689099741	3498.3682753624794	-436.7011255631634	-554.1927223153449	3468.828699074954	-431.6280149791879	-635.5631611737035	3935.963350821184	-489.2145204191778	-404.8498411213449	4141.21630270878	-467.9509850285153	-150.91076127988188	4100.873204952645	-368.6910178099301	-21.00120855543119	4089.7155425044116	-369.93780377343967	18.655451020834267	4168.97111645711	-376.4932023461993	-14.635913972764424	4158.471128724751	-342.66895929536076
171	2.85	-101.07339377506229	3854.634426940194	-620.8616092724467	251.433001512962	3994.6787486465096	-630.2722631536928	610.6635534983839	4268.181805697691	-686.395063026036	683.7854345923153	4171.258860186024	-642.7437232448368	667.5643340448673	4133.7823662556675	-683.8029546774809	637.0184021097436	4313.4253013008265	-690.3729449750588	-116.32542460752136	4053.8832776231657	-509.4156606037483	222.23525936661946	4167.609191396328	-498.02255106374264	570.5713862526206	4335.766031058698	-504.4044650595139	644.9498587320755	4220.085934818363	-403.2957938956913	623.8949239451094	4288.344179625449	-382.8662646057717	625.9607202172668	4383.270276511113	-535.5676516038566	-694.9722418617527	3819.566180055428	-589.4812938993113	-927.911162839532	3609.377145015688	-458.06962155263506	-785.9412376204807	3644.581697796107	-444.0888104963816	-588.8637393472522	3757.100425279051	-712.0562913385606	-330.2743280392312	3597.2495092414492	-670.0898404617843	-531.6440274667941	3572.3783404884302	-542.4844460884939	-608.4918332879873	3505.188006589702	-448.5833024432211	-622.5938137306796	3521.7057616374354	-436.870853103495	-557.7273954810571	3490.330933479087	-431.5332133105069	-635.7545645590347	3936.11239200304	-489.1418588388641	-399.2291136464184	4123.938102976223	-454.9888788493418	-150.86636426799544	4101.136199166272	-368.7855053413361	-26.903951534734517	4118.127473774406	-375.4058821065682	18.637572012590365	4169.634629339111	-376.36969511590047	-8.8993872703454	4163.052729947209	-344.3613412882032
